# xmcd
#
# Track frame offsets:
#	150
#	19016
#	41556
#	61245
#	79276
#	102493
#	123189
#	139252
#	165528
#	188922
#	201093
#	206717
#	231817
#	249914
#	266460
#	279502
#	305281
#
# Disc length: 4327 seconds
#
# Revision: 0
# Processed by: cddbd v1.5.1PL2 Copyright (c) Steve Scherf et al.
# Submitted via: audiograbber 1.83.01
#
DISCID=ea10e511
DTITLE=Rotcod Zzaj and Dr. Joe Hardin - The Scarab Polemic
DYEAR=1992
DGENRE=Blues
TTITLE0=92 Boogie
TTITLE1=Deranged Organ
TTITLE2=Missing Figures
TTITLE3=Dream Number 394
TTITLE4=High Away
TTITLE5=Illuminar Blur
TTITLE6=Twisted Latino
TTITLE7=Rain Dogs and Whistle Blowers
TTITLE8=Tequila Purge
TTITLE9=Hunting Frogs on The Beach With A Metal Detector
TTITLE10=Big Thump
TTITLE11=I Ain't Makin' No Cake
TTITLE12=Boogie Nose (No Bounds)
TTITLE13=The Madison Avenue Twist
TTITLE14=Rasputin (Gesundheit)
TTITLE15=Sampledelphia
TTITLE16=Street Signs
EXTD=
EXTT0=
EXTT1=
EXTT2=
EXTT3=
EXTT4=
EXTT5=
EXTT6=
EXTT7=
EXTT8=
EXTT9=
EXTT10=
EXTT11=
EXTT12=
EXTT13=
EXTT14=
EXTT15=
EXTT16=
PLAYORDER=
